<svg width="89" height="28" viewBox="0 0 89 28" fill="none" xmlns="http://www.w3.org/2000/svg">
<path d="M52.6141 23.24C51.9261 23.24 51.3741 23.04 50.9581 22.64C50.5581 22.24 50.3581 21.696 50.3581 21.008C50.3581 20.32 50.5581 19.776 50.9581 19.376C51.3741 18.96 51.9261 18.752 52.6141 18.752C53.3021 18.752 53.8461 18.96 54.2461 19.376C54.6621 19.776 54.8701 20.32 54.8701 21.008C54.8701 21.696 54.6621 22.24 54.2461 22.64C53.8461 23.04 53.3021 23.24 52.6141 23.24ZM68.4447 23C67.1807 23 66.1887 22.648 65.4687 21.944C64.7647 21.24 64.4127 20.272 64.4127 19.04V12.512H60.8367V9.8H64.4127V6.08H67.4367V9.8H72.5007V12.512H67.4367V19.04C67.4367 19.872 67.8447 20.288 68.6607 20.288H72.2607V23H68.4447ZM78.1793 27.32L80.0273 22.28L75.1073 9.8H78.3953L80.8433 16.544C80.9713 16.912 81.0993 17.36 81.2273 17.888C81.3553 18.4 81.4513 18.824 81.5153 19.16C81.5953 18.824 81.6993 18.4 81.8273 17.888C81.9553 17.36 82.0833 16.912 82.2113 16.544L84.5153 9.8H87.6833L81.3233 27.32H78.1793Z" fill="white"/>
<path d="M51.4611 19.1706C49.1683 19.1706 47.303 17.4165 47.303 15.2604C47.303 13.1043 49.1683 11.3502 51.4611 11.3502C53.7538 11.3502 55.6192 13.1043 55.6192 15.2604C55.6192 17.4165 53.7538 19.1706 51.4611 19.1706ZM51.4611 12.3382C49.7837 12.3382 48.419 13.6491 48.419 15.2604C48.419 16.8717 49.7837 18.1826 51.4611 18.1826C53.1384 18.1826 54.5031 16.8717 54.5031 15.2604C54.5031 13.6491 53.1384 12.3382 51.4611 12.3382Z" fill="#00BFA6"/>
<path d="M51.4703 19.0774C49.1724 19.0774 47.303 17.2656 47.303 15.0387C47.303 12.8117 49.1724 11 51.4703 11C53.7681 11 55.6376 12.8117 55.6376 15.0387C55.6376 17.2656 53.7681 19.0774 51.4703 19.0774ZM51.4703 12.0205C49.7892 12.0205 48.4215 13.3744 48.4215 15.0387C48.4215 16.7029 49.7892 18.0569 51.4703 18.0569C53.1514 18.0569 54.519 16.7029 54.519 15.0387C54.519 13.3744 53.1514 12.0205 51.4703 12.0205Z" fill="#00BFA6"/>
<path d="M55.5177 27H47.6252C46.9292 26.9993 46.2619 26.7468 45.7698 26.2978C45.2776 25.8488 45.0008 25.24 45 24.605V17.5421C45.0005 17.1074 45.1901 16.6906 45.527 16.3832C45.8639 16.0758 46.3207 15.9029 46.7972 15.9024H56.3456C56.8221 15.9029 57.2789 16.0758 57.6159 16.3832C57.9528 16.6906 58.1423 17.1074 58.1429 17.5421V24.605C58.1421 25.24 57.8652 25.8488 57.3731 26.2978C56.881 26.7468 56.2137 26.9993 55.5177 27Z" fill="white"/>
<path d="M53.0657 20.5749C53.0659 20.3254 52.9932 20.0805 52.8552 19.8652C52.7171 19.6499 52.5186 19.4721 52.2802 19.3501C52.0417 19.228 51.772 19.1662 51.4986 19.1709C51.2253 19.1756 50.9582 19.2467 50.725 19.3769C50.4918 19.5071 50.3009 19.6916 50.1718 19.9115C50.0428 20.1314 49.9803 20.3787 49.9909 20.628C50.0014 20.8772 50.0846 21.1194 50.2319 21.3295C50.3791 21.5397 50.5851 21.7102 50.8286 21.8236V24.0189H52.2268V21.8236C52.4792 21.7062 52.6912 21.5275 52.8392 21.3071C52.9872 21.0868 53.0656 20.8333 53.0657 20.5749Z" fill="white"/>
<path d="M53.0657 20.5749C53.0659 20.3254 52.9932 20.0805 52.8552 19.8652C52.7171 19.6499 52.5186 19.4721 52.2802 19.3501C52.0417 19.228 51.772 19.1662 51.4986 19.1709C51.2253 19.1756 50.9582 19.2467 50.725 19.3769C50.4918 19.5071 50.3009 19.6916 50.1718 19.9115C50.0428 20.1314 49.9803 20.3787 49.9909 20.628C50.0014 20.8772 50.0846 21.1194 50.2319 21.3295C50.3791 21.5397 50.5851 21.7102 50.8286 21.8236V24.0189H52.2268V21.8236C52.4792 21.7062 52.6912 21.5275 52.8392 21.3071C52.9872 21.0868 53.0656 20.8333 53.0657 20.5749Z" fill="#2F2E41"/>
<path d="M8.16206 23.24C6.96206 23.24 5.92206 23.04 5.04206 22.64C4.16206 22.24 3.48206 21.672 3.00206 20.936C2.53806 20.184 2.29806 19.304 2.28206 18.296H5.28206C5.28206 19.016 5.53806 19.584 6.05006 20C6.57806 20.4 7.29006 20.6 8.18606 20.6C9.05006 20.6 9.72206 20.4 10.2021 20C10.6981 19.6 10.9461 19.048 10.9461 18.344C10.9461 17.752 10.7701 17.24 10.4181 16.808C10.0821 16.36 9.59406 16.056 8.95406 15.896L6.93806 15.344C5.56206 14.992 4.49806 14.36 3.74606 13.448C3.01006 12.536 2.64206 11.432 2.64206 10.136C2.64206 9.144 2.86606 8.28 3.31406 7.544C3.76206 6.808 4.39406 6.24 5.21006 5.84C6.04206 5.44 7.01806 5.24 8.13806 5.24C9.83406 5.24 11.1781 5.68 12.1701 6.56C13.1621 7.424 13.6661 8.592 13.6821 10.064H10.6821C10.6821 9.376 10.4581 8.84 10.0101 8.456C9.56206 8.056 8.93006 7.856 8.11406 7.856C7.33006 7.856 6.72206 8.04 6.29006 8.408C5.85806 8.776 5.64206 9.296 5.64206 9.968C5.64206 10.576 5.80206 11.096 6.12206 11.528C6.45806 11.944 6.93806 12.24 7.56206 12.416L9.65006 12.992C11.0421 13.344 12.1061 13.976 12.8421 14.888C13.5781 15.784 13.9461 16.896 13.9461 18.224C13.9461 19.216 13.7061 20.096 13.2261 20.864C12.7461 21.616 12.0741 22.2 11.2101 22.616C10.3461 23.032 9.33006 23.24 8.16206 23.24ZM22.5767 23.24C21.4567 23.24 20.4727 23.032 19.6247 22.616C18.7927 22.184 18.1447 21.584 17.6807 20.816C17.2167 20.032 16.9847 19.112 16.9847 18.056V14.744C16.9847 13.672 17.2167 12.752 17.6807 11.984C18.1447 11.216 18.7927 10.624 19.6247 10.208C20.4727 9.776 21.4567 9.56 22.5767 9.56C24.2407 9.56 25.5687 9.992 26.5607 10.856C27.5527 11.704 28.0727 12.864 28.1207 14.336H25.1207C25.0727 13.648 24.8247 13.12 24.3767 12.752C23.9447 12.368 23.3447 12.176 22.5767 12.176C21.7767 12.176 21.1447 12.4 20.6807 12.848C20.2167 13.28 19.9847 13.904 19.9847 14.72V18.056C19.9847 18.872 20.2167 19.504 20.6807 19.952C21.1447 20.4 21.7767 20.624 22.5767 20.624C23.3447 20.624 23.9447 20.44 24.3767 20.072C24.8247 19.688 25.0727 19.152 25.1207 18.464H28.1207C28.0727 19.936 27.5527 21.104 26.5607 21.968C25.5687 22.816 24.2407 23.24 22.5767 23.24ZM31.9513 23V9.8H34.7833V12.32H35.5273L34.6393 13.856C34.6393 12.432 34.9593 11.36 35.5993 10.64C36.2393 9.92 37.1833 9.56 38.4313 9.56C39.8553 9.56 40.9753 10 41.7913 10.88C42.6073 11.76 43.0153 12.976 43.0153 14.528V15.488H39.8713V14.744C39.8713 13.896 39.6473 13.24 39.1993 12.776C38.7673 12.312 38.1673 12.08 37.3993 12.08C36.6153 12.08 36.0073 12.312 35.5753 12.776C35.1593 13.24 34.9513 13.896 34.9513 14.744V23H31.9513Z" fill="white"/>
</svg>
